<svg version="1.2" xmlns="http://www.w3.org/2000/svg" viewBox="0 0 296 267" width="296" height="267"><style>.a{fill:none;stroke:#1eb9d5;stroke-linecap:round;stroke-linejoin:round;stroke-width:3}.b{fill:#ffe161;stroke:#ffe161;stroke-width:3}</style><path class="a" d="m178.4 159v-64q0-1.2-0.5-2.3-0.5-1.1-1.3-1.9-0.9-0.9-2.1-1.3-1.1-0.5-2.3-0.5h-12.6l-2.2 5h-18.5l-1.9-5h-12.6q-1.2 0-2.4 0.5-1.1 0.4-2 1.3-0.8 0.8-1.3 1.9-0.5 1.1-0.6 2.3l-0.2 47.8c-1.8-1-3.6-2.2-5.5-3.4l0.2-49.9q0.1-1.3 0.6-2.4 0.5-1.1 1.3-1.9 0.9-0.9 2-1.3 1.2-0.5 2.4-0.4h59.1q1.2-0.1 2.3 0.4 1.2 0.4 2.1 1.3 0.8 0.8 1.3 1.9 0.5 1.1 0.5 2.4v110.6q0 1.2-0.5 2.3-0.5 1.1-1.3 1.9-0.9 0.9-2.1 1.3-1.1 0.5-2.3 0.5h-59.1q-1.2 0-2.4-0.5-1.1-0.4-2-1.3-0.8-0.8-1.3-1.9-0.5-1.1-0.6-2.3v-49.4q2.8-0.1 5.5-0.4v43.1q0.1 1.2 0.6 2.3 0.5 1.1 1.3 2 0.9 0.8 2 1.3 1.2 0.4 2.4 0.4h47.8q1.2 0 2.3-0.4 1.2-0.5 2.1-1.3 0.8-0.9 1.3-2 0.5-1.1 0.5-2.3v-19.9"/><path class="b" d="m166 60.4h5l0.2 43.6h9.5l-11.9 20.1-12.1-20h9.5z"/><path class="b" d="m148 120.7l-5 0.1-0.5-42-9.5 0.1 11.8-20.2 12.2 19.9-9.5 0.1z"/></svg>