<svg version="1.2" xmlns="http://www.w3.org/2000/svg" viewBox="0 0 295 267" width="295" height="267">
	<title>cable-tv-svg-svg</title>
	<style>
		.s0 { fill: none;stroke: #1eb9d5;stroke-width: 3 } 
		.s1 { fill: #ffe161 } 
		.s2 { fill: #1eb9d5 } 
	</style>
	<g id="Layer">
		<path id="Layer" class="s0" d="m224.8 57c3 0 4.2 0.2 4.9 0.9 1 0.9 1.1 2.4 0 3.6-1.1 1.1-7.9 1.2-9 0.1-0.9-0.9-1-2.3-0.3-3.7 0.4-0.7 1-0.9 4.4-0.9z"/>
		<path id="Layer" class="s0" d="m247 57.9c1.1 0.9 1.1 2.4 0.1 3.6-1.1 1.1-7.9 1.2-9.1 0.1-0.9-0.9-1-3.2-0.1-4 0.9-0.9 8-0.8 9.1 0.3z"/>
		<path id="Layer" class="s0" d="m229.5 70.3c1.3 1 1.4 2.8 0.1 4.1-1.3 1.3-7.4 1.4-8.8 0.1-1.2-1-1.2-3.7 0-4.4 1.3-0.8 7.4-0.6 8.7 0.2z"/>
		<path id="Layer" class="s0" d="m242.5 69.6c3.7 0 5.4 0.8 5.4 2.9 0 2-1.7 2.9-5.4 2.9-3.8 0-4.3-0.2-5.2-1.8-0.6-1.2 0-3.3 1-3.7 0.4-0.1 2.3-0.3 4.2-0.3z"/>
		<path id="Layer" class="s0" d="m225.2 82.1c3.5 0 5 0.8 5.2 2.7 0.3 2.5-0.8 3.1-5.2 3.1-4.4 0-5.4-0.6-5.2-3.1 0.1-1 0.5-1.7 1.4-2.1 0.6-0.3 2.4-0.6 3.8-0.6z"/>
		<path id="Layer" class="s0" d="m242.6 82.1c3.5 0 5 0.8 5.2 2.7 0.2 2.5-0.8 3.1-5.2 3.1-4.4 0-5.5-0.6-5.2-3.1 0.1-1 0.5-1.7 1.3-2.1 0.7-0.3 2.4-0.6 3.9-0.6z"/>
		<path id="Layer" fill-rule="evenodd" class="s1" d="m233.9 102c4.6-0.1 8.5 1.6 11.5 5 5.5 6.2 5.2 15.4-0.8 21.3-3.1 3.2-5.8 4.2-10.7 4.2-3.5 0-4.5-0.2-6.9-1.3-2.9-1.5-5.6-4.1-7.1-7.2-1.6-3-1.9-8.6-0.7-12.1 1.2-3.3 5.8-8.1 8.9-9.2 1.2-0.4 3.8-0.7 5.8-0.7zm-2.5 5.7c-5.5 1.7-8.3 6.7-6.9 12.2 0.7 2.7 3 5.4 5.4 6.4 2.1 0.9 6.1 0.9 8-0.1 7.4-3.7 7.6-14 0.3-17.8-1.6-0.9-5.2-1.2-6.8-0.7z"/>
		<path id="Layer" class="s0" d=""/>
		<path id="Layer" class="s0" d=""/>
		<path id="Layer" class="s0" d="m119.6 95.2c56.3-0.1 52.8-0.3 56.9 3.8 1.3 1.3 2.9 3.5 3.6 4.9 0.7 1.4 4.3 10.9 7.9 21.2l6.6 18.5v32.4l-1.5 2.5c-1.8 3.4-5.4 6.6-8.6 7.7-2.3 0.8-5.8 0.9-65 0.9h-62.4l-3.3-1.6c-3.5-1.8-5.9-4.2-7.7-7.8-1.1-2.2-1.1-2.5-1.1-17.9v-15.7l6.4-18.3c3.6-10.1 7.1-19.7 7.9-21.4 1.9-3.9 5.5-7.6 8.5-8.5 2-0.6 9.9-0.7 51.8-0.7zm54.5 2.2c2.5 1.9 6.5 11.3 11.1 24.3 2.2 6.5 4.7 15.8 4.7 15.9 0 0.2-0.7 0.1-1.5-0.2-2.3-0.6-135.5 0.6-138.5 1.1-0.7 0.1-1.3 0.4-1.4 0.3-0.4-0.3 12.7-35.9 14-38 1.4-2.3 5.2-3.4 6.7-4.1 0.5-0.2 23.3-0.3 50.7-0.3l49.7 0.1zm13.7 41.2c2.4 1.2 5 1.7 5.7 4.1 0.3 1.2 0.5 8.9 0.4 18.2l-0.2 14.4-1.3 1.9c-0.8 1.4-5.4 6.6-7.1 7.4l-2.6 1.2-63.9 0.2c-59.6 0-64.4-0.3-66.2-1.2-2.6-1-6.5-8-7.2-10.4-0.4-1.2-0.5-6.7-0.4-16l0.1-14 4.2-4.5c0.8-1.2 2.1-1.7 4.3-1.5l2.9-0.4h63.1c60.1 0 66.3-0.2 68.2 0.6z"/>
		<path id="Layer" class="s1" d="m155.6 145.6c1.1 0.7 1.1 1 1.1 8.2 0 7.1 0 7.4-1.1 8.1-1.4 1-2.6 1-3.7-0.2-0.9-0.8-1-1.6-1-7.7 0-6.5 0.1-6.8 1.2-7.9 1.4-1.4 2-1.5 3.5-0.5z"/>
		<path id="Layer" class="s1" d="m147 149.5c1.4 1 1.3 2.9-0.4 5.4-1.8 2.6-2.3 5-1.5 7.7 0.7 2.7 2 4.5 4.5 5.9 1.5 0.9 2.4 1 4.9 0.9 3.6-0.3 6-1.8 7.5-4.8 1.7-3.4 0.9-8.9-1.6-11-1.7-1.4-0.2-4.9 2.1-4.9 2.6 0 5.9 5.8 6.2 10.9 0.6 13.4-14.8 20.8-24.7 11.7-3.5-3.1-4.9-6.2-4.9-11 0-3 0.2-4.1 1.3-6.4 0.8-1.5 2.1-3.3 2.8-4 1.7-1.4 2.3-1.5 3.8-0.4z"/>
		<path id="Layer" fill-rule="evenodd" class="s1" d="m75.1 152.3c6.4 3.3 6.3 12.3-0.1 15.3-4.4 1.9-9 0.3-11.2-4-1.8-3.5-0.1-8.9 3.4-10.9 2.3-1.3 5.9-1.4 7.9-0.4zm-5.7 5.8c-0.9 1.1-0.8 3.2 0.3 4 2.6 1.9 5.6-0.8 4-3.8-0.6-1.1-3.5-1.2-4.3-0.2z"/>
		<path id="Layer" fill-rule="evenodd" class="s1" d="m95.8 152.3c4.3 2.2 6 6.8 4 11.2-3.7 8.1-16 5.4-16-3.6 0-3 1.6-5.8 4.1-7.2 2.3-1.2 5.9-1.4 7.9-0.4zm-3.3 5.2c-2.1-0.2-3 0.7-2.8 2.9 0.1 1.2 0.5 1.7 1.5 2 2.3 0.8 4.3-1.1 3.4-3.4-0.3-1.1-0.7-1.4-2.1-1.5z"/>
		<path id="Layer" fill-rule="evenodd" class="s2" d="m233.8 43c12.9 0.1 13.2 0.1 15 1.1 1.1 0.6 2.6 1.8 3.4 2.9 3 3.6 2.8-0.8 2.8 62 0 62.8 0.2 58.3-2.8 62-0.9 1-2.4 2.3-3.4 2.9-1.8 0.9-2.1 0.9-14.9 1-11.2 0.2-13.4 0.1-15.3-0.5-2.7-0.8-5.4-3.4-6.7-6.3l-0.9-2.1v-114.1l0.9-2.1c0.9-1.9 2.2-3.5 4.3-5.2 0.4-0.3 1.6-0.8 2.6-1.1 1.4-0.4 5.2-0.6 15-0.5zm-0.6 3.1c-12.5 0-13.7 0.1-15.4 0.9-1.1 0.4-2.2 1.4-2.7 2.2-0.9 1.4-0.9 2.1-0.9 46.1v44.7h38.1v-88.8l-1-1.7c-0.6-1.1-1.6-2-2.7-2.5-1.7-0.9-2.6-0.9-15.4-0.9zm19.1 99.1h-38.1v10.9c0 16.3-1 15.5 19 15.5 13.1 0 14 0 15.6-0.9 1.1-0.5 2.1-1.4 2.6-2.6 0.8-1.5 0.9-2.5 0.9-12.3z"/>
	</g>
</svg>