<svg version="1.2" xmlns="http://www.w3.org/2000/svg" viewBox="0 0 296 267" width="296" height="267"><style>.a{fill:none;stroke:#17bad6;stroke-width:1.5}.b{fill:#ffe161}</style><path class="a" d="m56 155.5c0 0 45.4-3.5 70.2 0.5 13.6 2.5 27.8 4 41.9 4 16.2 0 18.7 19.2-1 20.2-13.6 1-25.3 1-27.8 1 12.1 1.6 24.3 2.6 35.9 2.6 8.6 0 17.1-2 25.2-5.6 7.6-4 15.2-9.1 22.2-14.6 4.1-2.6 10.1-5.6 14.2-1 4 4.5 2.5 11.1-3.1 16.6-7 7.1-14.6 13.2-23.2 18.7-10.1 6.6-21.2 11.1-32.3 13.6-19.2 4.1-47-2.5-72.2-7-16.2-3.1-32.8-3.6-49.5-2.6v-22.7"/><path fill-rule="evenodd" class="b" d="m147.4 53.7v3.7c5.4 0 15.4 2.5 15.4 5.5 0 1.2-2.1 5-3.3 5-3.8-1.7-7.9-3-12.1-3.4v22.6c8.7 3.3 18.8 6.7 18.8 20 0 10.9-7.5 18-18.8 19.2v5c0 1.3-0.4 1.7-2.1 1.7-1.7 0-2.1-0.4-2.1-1.7v-4.6c-10.8-0.4-19.2-4.6-19.2-7.1 0-1.6 2.5-5.4 3.3-5.4 4.6 2.9 10.1 5 15.5 5.4v-25c-8.8-3.4-18-6.7-18-19.2 0-9.6 7.1-16.3 18-17.6v-4.1c0-0.9 0.4-1.7 2.1-1.7 1.6 0 2.5 0.8 2.5 1.7zm-13 22.1c0 5.4 4.2 8.3 9.2 10.4v-20.8c-5.4 0-9.6 4.6-9.2 10.4zm13 43.4c5.8-0.8 10-5.8 9.6-11.7 0-6.2-4.2-9.2-9.6-11.2z"/></svg>