<svg version="1.2" xmlns="http://www.w3.org/2000/svg" viewBox="0 0 51 51" width="51" height="51"><style>.a{fill:none;stroke:#ffe161;stroke-width:3}</style><path class="a" d="m30.8 9.4q1.3 0 2.6 0.2 1.3 0.1 2.6 0.2 1.2 0.2 2.5 0.4 1.3 0.2 2.6 0.4-0.5 2.3-0.9 4.6-0.4 2.2-0.7 4.5-0.3 2.3-0.5 4.6-0.1 2.3-0.2 4.6l0.1 2.6c0.3 8.6 2.2 12.9 2.2 12.9q-1.6 0.2-3.2 0.5-1.6 0.3-3.2 0.6-1.6 0.3-3.1 0.7-1.6 0.3-3.2 0.7-1.2-2.2-2.2-4.4"/><path class="a" d="m25.2 40.2q0.5 1.1 1 2.3-0.6 0.3-1.2 0.5-0.8-0.9-1.4-1.8l-1.3-1.7c-12.2-17.5-11-32.7-11-32.7 0 0 10.7-2.1 19.6-2q-0.1 2.4-0.1 4.6c-5.3-0.4-9.4-0.4-9.4-0.4q-0.2 0.7-0.3 1.3-0.1 0.7-0.2 1.3-0.1 0.7-0.2 1.4 0 0.6-0.1 1.3"/><path class="a" d="m26.2 42.5q-0.5-1.2-1-2.3l-0.8-2.1q-0.8-2.2-1.5-4.4-0.6-2.2-1.1-4.5-0.5-2.2-0.8-4.5-0.3-2.3-0.4-4.7"/><path class="a" d="m20.8 12.9q0-0.5 0.1-1 0-0.5 0.1-1 0.1-0.5 0.2-0.9 0.1-0.5 0.2-1c0.1-0.3 4.1 0 9.4 0.4"/><path class="a" d="m24.4 38.1q-0.8-2.1-1.5-4.3-0.6-2.2-1.1-4.4-0.5-2.2-0.8-4.5-0.3-2.2-0.4-4.5"/></svg>