<svg version="1.2" xmlns="http://www.w3.org/2000/svg" viewBox="0 0 811 576" width="811" height="576"><style>.a{fill:none;stroke:#1eb9d5;stroke-width:3}.b{fill:none;stroke:#ffe161;stroke-width:3;stroke-dasharray:300,45}.c{fill:none;stroke:#1fbad6;stroke-width:3;stroke-dasharray:120,15}</style><path class="a" d="m487.5 375.7c1.4 0.6 2.7 1.5 3.8 2.6 4.8 4.8 4.8 12.5 0 17.3-4.8 4.8-12.5 4.8-17.3 0-4.8-4.8-4.8-12.5 0-17.3 1.3-1.3 2.8-2.3 4.5-2.8"/><path class="a" d="m261.2 274.4v-104.9c0-14.9 12.1-26.9 26.9-26.9h394.7c14.9 0 26.9 12.1 26.9 26.9v218c0 14.9-12.1 26.9-26.9 26.9h-316.7"/><path class="a" d="m517.8 414.4v57.7"/><path class="a" d="m443.1 424.4v47.7"/><path class="a" d="m322 473.3h317.5"/><path class="a" d="m366.4 363.1h342.8"/><path class="a" d="m225.9 274.7h84.1"/><path class="a" d="m333.1 274.7h20c7.2 0 13.1 5.9 13.1 13.1v150.3c0 7.2-5.9 13.1-13.1 13.1h-106.8-107-25.4c-7.2 0-13.1-5.9-13.1-13.1v-150.4c0-7.2 5.9-13.1 13.1-13.1h58.6"/><path class="a" d="m243.6 442.7h-100.9-21.7c-7.6 0-13.8-6.2-13.8-13.8v-131.8c0-7.6 6.2-13.8 13.8-13.8h51.5"/><path class="a" d="m225.8 283.2h40.5 33 45.3c7.6 0 13.8 6.2 13.8 13.8v131.8c0 7.6-6.2 13.8-13.8 13.8h-81.6"/><path class="a" d="m230.6 301.2v8.8c0 3.2-2.6 5.7-5.7 5.7h-46.4c-3.2 0-5.7-2.6-5.7-5.7v-46.9-47-11.1c0-3.2 2.6-5.7 5.7-5.7h46.4c3.2 0 5.7 2.6 5.7 5.7v70.6"/><path class="a" d="m177.2 224.3v-7.3h49.1v79.8h-49.1v-51.5"/><circle class="a" cx="201.7" cy="305.8" r="4.8"/><path class="b" d="m418 216.9c4.5-11.4 17.2-16.9 28.5-12.3l28.8 11.8c11.2 4.5 16.7 17.5 12.2 28.9l-11.4 28.8c-4.5 11.3-17.3 16.8-28.4 12.3l-28.9-11.8c-11.3-4.5-16.7-17.6-12.2-28.9zm36.3 18.5c0.9-0.9 2.2-1 3.1-0.1l4.7 4.4c0.8 0.8 0.9 2.2 0.2 3.1l-4.2 4.6c-0.8 0.9-2.2 1-3.1 0.2l-4.7-4.5c-0.9-0.8-1-2.3-0.1-3.1z"/><path class="c" d="m436.5 271.4c-14-5.6-20.7-21.6-14.9-35.8 5.7-14.2 21.7-21.1 35.7-15.5 14 5.7 20.7 21.7 14.9 35.9-5.7 14.2-21.7 21.1-35.7 15.4zm1.7-39.2c0.7-1.9 2.8-2.8 4.7-2.1l3.3 1.3c1.9 0.8 2.8 2.9 2.1 4.8l-1.4 3.1c-0.7 1.9-2.8 2.8-4.7 2l-3.2-1.3c-1.9-0.7-2.9-2.9-2-4.7zm8.4 18.7c0.7-1.9 2.9-2.8 4.8-2l3.2 1.3c1.9 0.8 2.8 2.9 2.1 4.8l-1.3 3.1c-0.8 1.9-2.9 2.8-4.8 2.1l-3.2-1.3c-1.9-0.9-2.8-3-2-4.9zm-13.9-5.6c0.8-1.9 2.9-2.8 4.9-2l3.1 1.2c1.9 0.9 2.8 3 2.1 4.9l-1.2 3.1c-0.9 1.9-3 2.8-4.9 2l-3.2-1.3c-1.8-0.8-2.7-2.9-2-4.8z"/><path class="b" d="m147.2 351c4.5-11.5 17.3-17 28.5-12.4l28.8 11.8c11.1 4.5 16.6 17.5 12.1 28.8l-11.3 28.8c-4.5 11.4-17.3 16.8-28.4 12.4l-28.9-11.9c-11.2-4.5-16.6-17.5-12.1-28.9zm36.3 18.5c0.8-0.8 2.2-1 3-0.1l4.7 4.5c0.8 0.8 0.9 2.2 0.2 3.1l-4.2 4.5c-0.8 0.9-2.2 1-3.1 0.2l-4.6-4.4c-0.9-0.8-1-2.3-0.2-3.1z"/><path class="c" d="m165.8 405.4c-14-5.6-20.7-21.6-15-35.8 5.7-14.1 21.7-21.1 35.7-15.5 13.9 5.7 20.6 21.7 14.9 35.8-5.7 14.3-21.6 21.1-35.6 15.5zm1.6-39.2c0.8-1.9 2.9-2.8 4.8-2.1l3.2 1.3c1.9 0.8 2.8 2.9 2.1 4.8l-1.3 3.1c-0.8 1.8-2.9 2.7-4.8 2l-3.2-1.3c-1.8-0.7-2.8-2.9-2-4.7zm8.4 18.7c0.7-1.9 3-2.8 4.8-2l3.2 1.2c1.9 0.9 2.8 3 2.1 4.9l-1.3 3.1c-0.8 1.9-2.9 2.8-4.8 2l-3.2-1.3c-1.9-0.8-2.8-2.9-2-4.8zm-13.8-5.7c0.7-1.8 2.8-2.7 4.8-1.9l3.2 1.2c1.9 0.8 2.8 3 2 4.8l-1.2 3.1c-0.8 1.9-2.9 2.8-4.8 2.1l-3.2-1.3c-1.9-0.8-2.8-3-2.1-4.8z"/><path class="b" d="m516 253c4.5-11.5 17.2-17 28.5-12.4l28.8 11.8c11.2 4.5 16.7 17.5 12.2 28.9l-11.4 28.8c-4.5 11.4-17.3 16.9-28.4 12.4l-28.9-11.9c-11.3-4.5-16.7-17.5-12.2-28.9zm36.3 18.5c0.9-0.8 2.2-1 3.1-0.1l4.7 4.5c0.8 0.8 0.9 2.2 0.2 3.1l-4.2 4.5c-0.8 0.9-2.2 1-3.1 0.2l-4.7-4.4c-0.9-0.8-1-2.3-0.1-3.1z"/><path class="c" d="m534.5 307.5c-14-5.7-20.7-21.6-14.9-35.9 5.7-14.1 21.7-21.1 35.7-15.4 14 5.6 20.7 21.7 14.9 35.8-5.7 14.3-21.7 21.1-35.7 15.5zm1.7-39.3c0.7-1.9 2.8-2.8 4.7-2l3.3 1.3c1.9 0.7 2.8 2.8 2.1 4.7l-1.4 3.1c-0.7 1.9-2.8 2.8-4.7 2.1l-3.2-1.3c-1.9-0.8-2.9-2.9-2-4.8zm8.4 18.8c0.7-1.9 2.9-2.8 4.8-2l3.2 1.2c1.9 0.8 2.8 3 2.1 4.9l-1.3 3.1c-0.8 1.8-2.9 2.7-4.8 2l-3.2-1.3c-1.9-0.8-2.8-2.9-2-4.8zm-13.9-5.7c0.8-1.9 2.9-2.8 4.9-1.9l3.1 1.2c1.9 0.8 2.8 2.9 2.1 4.8l-1.2 3.1c-0.9 1.9-3 2.8-4.9 2.1l-3.2-1.3c-1.8-0.9-2.7-3-2-4.9z"/><path class="b" d="m557 165c4.5-11.5 17.2-17 28.5-12.4l28.8 11.8c11.2 4.5 16.7 17.5 12.2 28.9l-11.4 28.8c-4.5 11.4-17.3 16.9-28.4 12.4l-28.9-11.9c-11.3-4.5-16.7-17.5-12.2-28.9zm36.3 18.5c0.9-0.8 2.2-1 3.1-0.1l4.7 4.5c0.8 0.8 0.9 2.2 0.2 3.1l-4.2 4.5c-0.8 0.9-2.2 1-3.1 0.2l-4.7-4.4c-0.9-0.8-1-2.3-0.1-3.1z"/><path class="c" d="m575.5 219.5c-14-5.7-20.7-21.6-14.9-35.9 5.7-14.1 21.7-21.1 35.7-15.4 14 5.6 20.7 21.7 14.9 35.8-5.7 14.3-21.7 21.1-35.7 15.5zm1.7-39.3c0.7-1.9 2.8-2.8 4.7-2l3.3 1.3c1.9 0.7 2.8 2.8 2.1 4.7l-1.4 3.1c-0.7 1.9-2.8 2.8-4.7 2.1l-3.2-1.3c-1.9-0.8-2.9-2.9-2-4.8zm8.4 18.8c0.7-1.9 2.9-2.8 4.8-2l3.2 1.2c1.9 0.8 2.8 3 2.1 4.9l-1.3 3.1c-0.8 1.8-2.9 2.7-4.8 2l-3.2-1.3c-1.9-0.8-2.8-2.9-2-4.8zm-13.9-5.7c0.8-1.9 2.9-2.8 4.9-1.9l3.1 1.2c1.9 0.8 2.8 2.9 2.1 4.8l-1.2 3.1c-0.9 1.9-3 2.8-4.9 2.1l-3.2-1.3c-1.8-0.9-2.7-3-2-4.9z"/><path class="b" d="m616 291c4.5-11.5 17.2-17 28.5-12.4l28.8 11.8c11.2 4.5 16.7 17.5 12.2 28.9l-11.4 28.8c-4.5 11.4-17.3 16.9-28.4 12.4l-28.9-11.9c-11.3-4.5-16.7-17.5-12.2-28.9zm36.3 18.5c0.9-0.8 2.2-1 3.1-0.1l4.7 4.5c0.8 0.8 0.9 2.2 0.2 3.1l-4.2 4.5c-0.8 0.9-2.2 1-3.1 0.2l-4.7-4.4c-0.9-0.8-1-2.3-0.1-3.1z"/><path class="c" d="m634.5 345.5c-14-5.7-20.7-21.6-14.9-35.9 5.7-14.1 21.7-21.1 35.7-15.4 14 5.6 20.7 21.7 14.9 35.8-5.7 14.3-21.7 21.1-35.7 15.5zm1.7-39.3c0.7-1.9 2.8-2.8 4.7-2l3.3 1.3c1.9 0.7 2.8 2.8 2.1 4.7l-1.4 3.1c-0.7 1.9-2.8 2.8-4.7 2.1l-3.2-1.3c-1.9-0.8-2.9-2.9-2-4.8zm8.4 18.8c0.7-1.9 2.9-2.8 4.8-2l3.2 1.2c1.9 0.8 2.8 3 2.1 4.9l-1.3 3.1c-0.8 1.8-2.9 2.7-4.8 2l-3.2-1.3c-1.9-0.8-2.8-2.9-2-4.8zm-13.9-5.7c0.8-1.9 2.9-2.8 4.9-1.9l3.1 1.2c1.9 0.8 2.8 2.9 2.1 4.8l-1.2 3.1c-0.9 1.9-3 2.8-4.9 2.1l-3.2-1.3c-1.8-0.9-2.7-3-2-4.9z"/></svg>