<svg version="1.2" xmlns="http://www.w3.org/2000/svg" viewBox="0 0 295 267" width="295" height="267">
	<title>eTicket-svg</title>
	<style>
		.s0 { fill: #ffe161 } 
		.s1 { fill: #1eb9d5 } 
	</style>
	<g id="Layer">
		<path id="Layer" fill-rule="evenodd" class="s0" d="m153.5 58.1c0.8 0 1.5 0.3 2.1 1 1.5 1.6 6.7 10.4 8.3 14.1 1.3 2.8 1.4 3.5 1.4 6.2 0 2.7-0.1 3.3-1.2 5.4-1.5 2.6-2.7 3.8-5.5 5.3-1.6 0.8-2.4 1-5.1 1-2.8 0-3.6-0.2-5.2-1-2.8-1.5-4-2.7-5.5-5.3-1.1-2.1-1.2-2.7-1.2-5.4 0-2.7 0.1-3.4 1.4-6.2 1.6-3.7 6.8-12.5 8.3-14.1 0.6-0.7 1.3-1 2.2-1zm0.2 2.9c-0.6 0-7.2 12.4-8.1 15.2-1.2 3.9-0.6 6.5 2 9.1 3.6 3.6 8.7 3.6 12.2 0 4-4 3.5-7.5-2.3-18.1-1.9-3.4-3.6-6.2-3.8-6.2z"/>
		<path id="Layer" fill-rule="evenodd" class="s0" d="m182.3 58.1h8.6l0.9 0.9c1.5 1.5 1.2 2.6-1.9 7.2l-2.7 4.2 1.2 2.4c1.3 2.6 1.6 4 0.8 5-0.2 0.3-4.1 3.5-8.5 7-8.8 7.1-9.4 7.4-11.2 5.6-0.5-0.5-0.9-1.3-0.9-1.7 0-0.5 0.6-3.2 1.3-6.2l1.3-5.3-2.8-2.9c-2.2-2.3-2.9-3.2-2.9-4 0-1.1 6.4-11.2 7.5-11.9 0.4-0.1 4.5-0.3 9.3-0.3zm4.7 2.9h-12.4l-2.8 3.9c-1.5 2.1-2.8 4-2.8 4.2 0 0.2 1.7 2.1 3.9 4.1 4.1 3.9 4.4 4.7 3.2 8.4-0.3 1.2-0.5 2.3-0.3 2.4 0.1 0.1 2.3-1.3 4.8-3.2l4.6-3.3-1.8-3.2c-1-1.9-1.8-3.9-1.8-4.6 0-0.7 1.2-3 2.7-5z"/>
		<path id="Layer copy 11" class="s1" d="m152.6 133h3 12.1v3 0.3h-12.1l-3 0.1v-0.4zm19.4 4"/>
		<path id="Layer copy 10" class="s1" d="m198.6 192h3 12.1v3 0.3h-12.1l-3 0.1v-0.4zm19.4 4"/>
		<path id="Layer copy 9" class="s1" d="m117.6 107h3 12.1v3 0.3h-12.1l-3 0.1v-0.4zm19.4 4"/>
		<path id="Layer copy 8" class="s1" d="m198.6 107h3 12.1v3 0.3h-12.1l-3 0.1v-0.4zm19.4 4"/>
		<path id="Layer copy 16" class="s1" d="m198.6 120h3 12.1v3 0.3h-12.1l-3 0.1v-0.4zm19.4 4"/>
		<path id="Layer copy 7" class="s1" d="m198.6 135h3 12.1v3 0.3h-12.1l-3 0.1v-0.4zm19.4 4"/>
		<path id="Layer copy 5" class="s1" d="m188.6 203h12 12.1v3 0.3h-12.1-12.1l0.1-0.3zm28.4 4"/>
		<path id="Layer copy 4" class="s1" d="m118.6 145h12 12.1v3 0.3h-12.1-12.1l0.1-0.3zm28.4 4"/>
		<path id="Layer copy 3" class="s1" d="m117.6 133h12 12.1v3 0.3h-12.1-12.1l0.1-0.3zm28.4 4"/>
		<path id="Layer copy 6" fill-rule="evenodd" class="s1" d="m165.2 45.1c52.9-0.1 59.1 0 60.6 0.5 2.3 0.8 2.7 3.1 3.4 5.4 0.3 1.2 0.4 20.5 0.3 79.7l-0.1 78.2-0.9 2.3c-2.6 5.3-4.1 7.8-10.9 10.1-2 0.7-4.6 0.8-69.4 0.8-64.9 0-64.6-0.1-66.6-0.8-7.7-2.6-12.7-6.8-14-14.1-0.2-1.3-0.4-7.4-0.4-14.3l-0.1-10.7 1-0.9 0.9-1 12.7-0.2h14.1v3.1l0.1 1.7h-24.2l0.2 21.7 1.4 2.9c1.7 3.4 3.9 5.5 7.4 7.2 2.3 1.1 2.9 1.2 6.2 1.2 3.2 0 3.8-0.1 6.1-1.2 3.5-1.7 5.7-3.8 7.4-7.2l1.4-2.9 0.2-78.5c0.1-75.9 0.2-78.6 0.9-80 0.8-1.8 0.4-2.1 2.1-2.6 0.9-0.3 20-0.4 60.2-0.4zm58.9 3.9h-58.5c-57 0-58.5 0-59.4 0.7l-0.9 0.7-0.2 78.5-0.2 78.5-0.1 1.9c-1.5 4.8-2.1 4.9-3.7 6.7l-2.7 2.3 12.1-0.2c6.3 0 32.2 0 57.7 0l46.2-0.1 2.6-1.2c3.5-1.7 5.7-3.8 7.4-7.3l1.4-2.8 0.1-77.9v-77.9z"/>
		<path id="Layer copy 12" class="s1" d="m117.6 157h12 12.1v3 0.3h-12.1-12.1l0.1-0.3zm28.4 4"/>
		<path id="Layer copy 13" class="s1" d="m117.6 133h12 12.1v3 0.3h-12.1-12.1l0.1-0.3zm28.4 4"/>
		<path id="Layer copy 2" class="s1" d="m117.6 120h12 12.1v3 0.3h-12.1-12.1l0.1-0.3zm28.4 4"/>
		<path id="Layer copy 15" class="s1" d="m152.6 145h12 12.1v3 0.3h-12.1-12.1l0.1-0.3zm28.4 4"/>
		<path id="Layer copy 18" class="s1" d="m189.6 181h12 12.1v3 0.3h-12.1-12.1l0.1-0.3zm28.4 4"/>
		<path id="Layer copy 17" class="s1" d="m166.6 192h12 12.1v3 0.3h-12.1-12.1l0.1-0.3zm28.4 4"/>
		<path id="Layer copy 14" class="s1" d="m152.6 120h12 12.1v3 0.3h-12.1-12.1l0.1-0.3zm28.4 4"/>
		<path id="Layer copy" class="s1" d="m117.6 173h12 12.1v3 0.3h-12.1-12.1l0.1-0.3zm28.4 4"/>
	</g>
</svg>