<svg xmlns="http://www.w3.org/2000/svg" width="180" height="180" viewBox="0 0 180 180" version="1.1">
	<path d="M 25.113 2.059 C 14.364 5.875, 5.744 14.618, 1.999 25.502 C 0.090 31.052, -0 33.923, -0 89.500 C -0 145.077, 0.090 147.948, 1.999 153.498 C 5.814 164.587, 14.413 173.186, 25.502 177.001 C 31.052 178.910, 33.923 179, 89.500 179 C 145.077 179, 147.948 178.910, 153.498 177.001 C 164.587 173.186, 173.186 164.587, 177.001 153.498 C 178.910 147.948, 179 145.077, 179 89.500 C 179 33.923, 178.910 31.052, 177.001 25.502 C 173.186 14.413, 164.587 5.814, 153.498 1.999 C 147.935 0.086, 145.181 0.003, 89.093 0.073 C 34.045 0.142, 30.174 0.262, 25.113 2.059 M 41 88.258 L 41 138 52 138 L 63 138 63 113.764 L 63 89.528 76.500 103 L 90 116.472 103.500 103 L 117 89.528 117 113.764 L 117 138 128 138 L 139 138 139 88.258 L 139 38.515 114.500 63 L 90 87.485 65.500 63 L 41 38.515 41 88.258" stroke="none" fill="black" fill-rule="evenodd"/>
</svg>